<svg width="101" height="60" fill="none" xmlns="http://www.w3.org/2000/svg"><mask id="a" style="mask-type:luminance" maskUnits="userSpaceOnUse" x="94" y="18" width="7" height="7"><path d="M94.91 18.966h5.236v5.728h-5.237v-5.728Z" fill="#fff"/></mask><g mask="url(#a)"><mask id="b" style="mask-type:luminance" maskUnits="userSpaceOnUse" x="31" y="-8" width="81" height="88"><path d="M31.902 49.96 59.296-7.9l52.309 29.637-27.394 57.86-52.309-29.638Z" fill="#fff"/></mask><g mask="url(#b)"><mask id="c" style="mask-type:luminance" maskUnits="userSpaceOnUse" x="31" y="-8" width="81" height="88"><path d="M31.902 49.96 59.296-7.9l52.309 29.637-27.394 57.86-52.309-29.638Z" fill="#fff"/></mask><g mask="url(#c)"><path fill-rule="evenodd" clip-rule="evenodd" d="M96.235 20.887c-.406.854-.102 1.905.678 2.35.781.441 1.742.105 2.146-.75.406-.856.1-1.908-.678-2.35-.78-.442-1.742-.106-2.146.75Zm.312 3.123c-1.171-.664-1.626-2.241-1.02-3.524.61-1.283 2.05-1.787 3.22-1.123 1.17.664 1.627 2.242 1.02 3.524-.609 1.283-2.05 1.785-3.22 1.123Z" fill="#A52424"/></g></g></g><mask id="d" style="mask-type:luminance" maskUnits="userSpaceOnUse" x="59" y="6" width="42" height="54"><path d="M59.89 6.077h41.101v53.346h-41.1V6.077Z" fill="#fff"/></mask><g mask="url(#d)"><mask id="e" style="mask-type:luminance" maskUnits="userSpaceOnUse" x="45" y="-3" width="65" height="71"><path d="M45.474 43.772 67.34-2.413l41.754 23.657L87.228 67.43 45.474 43.772Z" fill="#fff"/></mask><g mask="url(#e)"><mask id="f" style="mask-type:luminance" maskUnits="userSpaceOnUse" x="45" y="-3" width="65" height="71"><path d="M45.474 43.772 67.34-2.413l41.754 23.657L87.228 67.43 45.474 43.772Z" fill="#fff"/></mask><g mask="url(#f)"><path fill-rule="evenodd" clip-rule="evenodd" d="M60.08 13.52a.37.37 0 0 1 .022-.492c7.29-7.277 18.218-9.22 27.478-3.974 3.875 2.197 6.981 5.382 9.191 9.13a.367.367 0 0 1-.095.48.3.3 0 0 1-.438-.102c-2.153-3.648-5.176-6.75-8.952-8.889-9.015-5.108-19.657-3.218-26.757 3.869-.13.13-.33.12-.45-.023Zm11.715 44.843c.03-.19.197-.316.37-.28 9.932 1.974 20.301-3.239 25.195-13.576 3.057-6.457 3.389-13.668 1.452-20.058-.055-.182.035-.378.201-.44.168-.06.347.038.402.22 1.989 6.56 1.649 13.967-1.492 20.596-5.026 10.617-15.674 15.97-25.874 13.943-.171-.036-.286-.216-.254-.405Z" fill="#A52424"/></g></g></g><path d="M73.01 44.624c.64.058 1.941-.554 2.473-1.163.08-.088.266-.206.133-.351-.133-.173-.293-.086-.399.03-.426.406-.903.67-1.41.902-1.249.61-1.966.086-1.94-1.426 0-1.018.32-1.977.718-2.907.798-1.863 1.862-3.52 2.87-5.208.347-.61.666-1.222.853-1.919.106-.379.239-.873-.027-1.134-.56-.611-.266-1.018.186-1.454.105-.088.16-.263.213-.437.053-.175.053-.348-.08-.466-.266-.348-.612-.524-1.037-.436-.506.117-.878.436-1.01 1.018-.106.466.027.96.371 1.221.293.204.32.437.266.728a3.719 3.719 0 0 1-.505 1.512c-.426.757-.85 1.512-1.276 2.24-.77 1.308-1.488 2.617-1.995 4.044-.398 1.221-.557 2.443-.185 3.722.24.815 1.01 1.454 1.78 1.484Z" fill="#A52424"/><path d="M66.138 31.341c-.346-.32-.64-.32-.984.028l-.399.436c-1.622 2.386-2.897 4.918-3.163 7.942-.108.785-.08 1.57.078 2.355a4.77 4.77 0 0 0 .745 1.746c.745.96 1.568 1.076 2.526.406.16-.115.319-.29.48-.436 1.354-1.25 2.55-2.676 3.775-4.07 1.488-1.718 3.11-3.17 5.078-4.219 1.116-.582 2.18-1.221 3.349-1.687.107-.028.213-.058.186-.203 0-.116-.106-.174-.212-.174-.213-.03-.373.058-.531.145-.612.29-1.224.58-1.809.901-1.17.612-2.393 1.164-3.51 1.949-1.62 1.076-3.005 2.502-4.307 4.014-.745.814-1.41 1.716-2.286 2.356-.506.378-.983.757-1.622.785-.48.03-.612-.088-.718-.582-.133-.61-.133-1.221-.08-1.831.213-2.27 1.01-4.336 2.074-6.284.48-.873.984-1.658 1.463-2.5.238-.437.186-.786-.133-1.077Zm1.222-1.424c.24.085.399-.088.373-.351 0-.436-.451-.873-.905-.93-.239-.028-.371.145-.291.408.133.436.451.727.823.873Z" fill="#A52424"/><path d="M52.991 39.113c.053.61.133 1.221.399 1.773.903 1.863 2.712 2.27 4.227 1.572 3.058-1.426 8.8-6.923 12.097-7.36-.027-.115-.027-.173-.052-.203-.904-1.106-9.067 5.033-11.752 6.457-.692.379-1.384.698-2.181.698-.4-.028-.663-.203-.824-.61a3.55 3.55 0 0 1-.238-1.31 7.84 7.84 0 0 1 .532-3.024c.291-.815.743-1.542 1.142-2.299.293-.61.24-.813-.32-1.104-.16-.087-.318-.205-.478-.145-.292.115-.452-.06-.665-.205-.798-.494-1.595-.61-2.391-.058-1.916 1.309-2.793 3.287-2.74 5.7 0 .815.85 1.281 1.543.933a2.34 2.34 0 0 0 .69-.582c.294-.291.585-.612.904-.96.107.29.08.524.107.727Zm-1.49-.349c-.185.173-.398.319-.69.552 0-.64.106-1.106.266-1.512.479-1.34 1.17-2.473 2.18-3.403.186-.176.425-.291.638-.437.133-.087.318-.115.426.088.105.173.213.319.08.552-.853 1.484-1.676 2.996-2.9 4.16Zm-1.453-7.232c-1.488.843-2.87 1.832-4.12 3.053-1.65 1.6-3.085 3.433-4.573 5.208-.772.93-1.596 1.831-2.606 2.443-.56.378-.85.203-.931-.466a2.44 2.44 0 0 1 0-.61c.053-.409.133-.815.239-1.194.479-1.715 1.17-3.345 1.941-4.945.718-1.54 1.463-3.082 2.18-4.624.319-.668.56-1.425.692-2.152.186-.9-.186-1.367-1.038-1.367-.477.03-.876.261-1.275.524-1.25.9-2.34 2.064-3.43 3.17-.824.843-1.622 1.745-2.578 2.473.025-.873.211-1.716.477-2.503a89.473 89.473 0 0 1 3.377-8.695c.772-1.833 1.648-3.578 2.526-5.324A150.526 150.526 0 0 1 46.486 6.46c.479-.785.903-1.628 1.302-2.473.187-.406.107-.552-.292-.697-.479-.176-.825-.058-1.143.436-.638 1.018-1.277 2.006-1.887 2.997-2.208 3.664-4.255 7.416-6.089 11.285-1.543 3.315-3.005 6.66-4.255 10.121-.559 1.513-1.01 3.055-1.063 4.683-.053.96.399 1.396 1.25 1.309.318-.03.584-.176.85-.379.266-.261.532-.494.772-.755 1.25-1.281 2.446-2.618 3.748-3.812.56-.494 1.117-1.018 1.782-1.309.133.206.052.379-.028.554-.133.377-.291.785-.451 1.164-.585 1.454-1.383 2.761-2.02 4.158-.798 1.658-1.569 3.288-1.995 5.09-.213.961-.426 1.92-.185 2.938.185.814.584 1.163 1.355 1.163.612.03 1.143-.233 1.595-.64a12.55 12.55 0 0 0 1.543-1.454c1.222-1.367 2.446-2.706 3.668-4.1 1.728-1.921 3.564-3.666 5.717-4.975.133-.086.319-.146.266-.377-.426-.088-.426-.088-.878.145Z" fill="#A52424"/><path d="M4.92 38.188c2.498 3.054 5.61 4.742 9.36 4.857 4.226.088 7.736-1.745 10.554-5.206 2.446-3.054 4.147-6.603 5.61-10.297 1.196-3.024 2.074-6.194 3.11-9.306 1.25-3.812 2.632-7.534 4.546-10.967.213-.376.454-.581.852-.667 1.622-.379 3.217-.933 4.6-2.008.318-.232.559-.291.93-.174C49.188 5.875 54 6.717 58.92 6.747c2.365.028 4.706-.06 7.019-.699 1.275-.349 2.524-.843 3.482-1.919.106-.087.319-.145.213-.348-.08-.206-.293-.234-.479-.146-.371.116-.797.203-1.169.436-1.038.698-2.127 1.25-3.351 1.513-1.729.406-3.483.522-5.264.522-4.069.06-8.11-.494-12.071-1.483-.984-.233-1.94-.524-2.924-.814.079-.116.106-.174.159-.262.825-1.25.346-2.384-1.064-2.588-1.169-.175-2.18.32-3.058 1.076-.398.349-.717.407-1.142.203-.08-.03-.16-.03-.213-.057-2.925-.93-5.85-1.658-8.88-1.804-3.749-.175-7.391.465-10.954 1.658C11.194 4.74 5.318 10.208 1.57 18.381.08 21.64-.399 25.07.346 28.648c.718 3.636 2.34 6.777 4.574 9.54Zm38.1-36.531c.371-.146.584.057.664.406.106.494-.08.903-.346 1.281-.08.086-.158.116-.266.058-.584-.175-1.169-.379-1.806-.582.557-.554 1.116-.93 1.754-1.163ZM40.626 3.49c.08-.088.16-.205.346-.146.585.174 1.197.377 1.887.582-1.169 1.046-2.471 1.453-3.828 1.861.479-.815 1.01-1.57 1.595-2.297ZM2.846 18.118C6.993 9.508 13.4 4.158 22.068 1.976c2.339-.58 4.732-.959 7.125-.989 2.393-.028 4.732.466 7.047 1.018 1.062.261 2.1.552 3.189.903-.452.582-.876 1.104-1.275 1.628-.16.203-.373.436-.48.697-.425.933-1.143 1.194-2.046 1.281-2.288.233-4.574.494-6.861.785-3.535.465-6.912 1.455-9.89 3.694-3.35 2.5-5.637 5.846-6.62 10.18-.372 1.6-.186 3.2.213 4.77.08.233.185.436.266.669.08.203.265.32.451.203.16-.088 0-.233-.027-.378-.399-2.298-.291-4.565.506-6.747 2.1-5.672 5.956-9.22 11.3-10.908 2.419-.756 4.892-1.018 7.39-1.25 1.224-.117 2.447-.263 3.67-.408.133 0 .266 0 .452-.028-.266.524-.504.988-.745 1.454-1.462 2.704-2.418 5.671-3.43 8.61-1.116 3.257-1.966 6.66-3.19 9.888-1.383 3.636-2.978 7.127-5.264 10.18-2.313 3.172-5.318 5.003-9.013 5.265-2.66.174-5.078-.699-7.125-2.56-3.909-3.578-6.25-8.115-6.595-13.757-.159-2.88.506-5.555 1.728-8.058Z" fill="#A52424"/></svg>