<svg width="101" height="59" fill="none" xmlns="http://www.w3.org/2000/svg"><mask id="a" style="mask-type:luminance" maskUnits="userSpaceOnUse" x="94" y="18" width="7" height="7"><path d="M94.908 18.558h5.237v5.71h-5.237v-5.71Z" fill="#fff"/></mask><g mask="url(#a)"><mask id="b" style="mask-type:luminance" maskUnits="userSpaceOnUse" x="31" y="-9" width="81" height="88"><path d="M31.9 49.453 59.294-8.223l52.309 29.543L84.21 78.996 31.9 49.453Z" fill="#fff"/></mask><g mask="url(#b)"><mask id="c" style="mask-type:luminance" maskUnits="userSpaceOnUse" x="31" y="-9" width="81" height="88"><path d="M31.9 49.453 59.294-8.223l52.309 29.543L84.21 78.996 31.9 49.453Z" fill="#fff"/></mask><g mask="url(#c)"><path fill-rule="evenodd" clip-rule="evenodd" d="M96.234 20.473c-.406.851-.102 1.9.678 2.342.781.44 1.742.106 2.146-.747.406-.854.101-1.902-.678-2.343-.78-.44-1.742-.106-2.146.748Zm.312 3.114c-1.171-.662-1.626-2.235-1.02-3.514.61-1.279 2.05-1.78 3.22-1.119 1.17.662 1.627 2.235 1.02 3.513-.609 1.28-2.05 1.78-3.22 1.12Z" fill="#0D588F"/></g></g></g><mask id="d" style="mask-type:luminance" maskUnits="userSpaceOnUse" x="59" y="5" width="42" height="54"><path d="M59.89 5.71h41.101v53.176h-41.1V5.71Z" fill="#fff"/></mask><g mask="url(#d)"><mask id="e" style="mask-type:luminance" maskUnits="userSpaceOnUse" x="45" y="-3" width="65" height="70"><path d="M45.475 43.285 67.34-2.753l41.754 23.582-21.867 46.038-41.753-23.582Z" fill="#fff"/></mask><g mask="url(#e)"><mask id="f" style="mask-type:luminance" maskUnits="userSpaceOnUse" x="45" y="-3" width="65" height="70"><path d="M45.475 43.285 67.34-2.753l41.754 23.582-21.867 46.038-41.753-23.582Z" fill="#fff"/></mask><g mask="url(#f)"><path fill-rule="evenodd" clip-rule="evenodd" d="M60.08 13.129a.368.368 0 0 1 .023-.49c7.29-7.254 18.218-9.19 27.478-3.961 3.875 2.19 6.981 5.365 9.191 9.1a.365.365 0 0 1-.095.48.301.301 0 0 1-.438-.102c-2.153-3.637-5.176-6.729-8.952-8.861C78.272 4.203 67.63 6.087 60.53 13.15a.3.3 0 0 1-.45-.022Zm11.716 44.7c.03-.188.197-.314.37-.278 9.932 1.967 20.301-3.229 25.195-13.533 3.057-6.436 3.389-13.625 1.452-19.994-.055-.181.035-.377.201-.438.168-.061.347.037.402.218 1.989 6.54 1.649 13.923-1.492 20.531C92.898 54.92 82.25 60.254 72.05 58.233c-.171-.035-.286-.215-.254-.403Z" fill="#0D588F"/></g></g></g><path d="M73.009 44.135c.64.057 1.941-.552 2.473-1.16.08-.088.266-.205.133-.35-.133-.172-.293-.085-.399.03-.426.405-.903.667-1.41.9-1.249.608-1.966.085-1.94-1.422 0-1.015.32-1.97.719-2.898.797-1.857 1.86-3.51 2.87-5.192.346-.607.665-1.217.852-1.912.106-.378.239-.87-.027-1.13-.56-.61-.266-1.015.186-1.45.105-.088.16-.262.213-.435.053-.175.053-.348-.08-.465-.266-.348-.612-.522-1.037-.435-.506.117-.877.435-1.01 1.015-.106.465.027.957.371 1.217.293.203.32.436.266.725-.053.553-.239 1.045-.504 1.508-.427.755-.851 1.507-1.277 2.232-.77 1.305-1.488 2.61-1.995 4.032-.398 1.218-.557 2.435-.185 3.71.24.812 1.01 1.45 1.78 1.48Z" fill="#0D588F"/><path d="M66.138 30.894c-.346-.32-.64-.32-.984.028l-.399.435c-1.622 2.377-2.897 4.901-3.163 7.916a6.97 6.97 0 0 0 .078 2.348 4.75 4.75 0 0 0 .745 1.74c.745.957 1.568 1.072 2.526.405.16-.115.319-.29.48-.435 1.354-1.245 2.55-2.667 3.775-4.058 1.488-1.712 3.11-3.16 5.078-4.204 1.116-.58 2.18-1.218 3.349-1.683.107-.027.213-.057.186-.202 0-.115-.106-.173-.212-.173-.213-.03-.373.058-.531.145a33.61 33.61 0 0 0-1.809.898c-1.17.61-2.393 1.16-3.51 1.942-1.62 1.073-3.005 2.495-4.307 4.002-.745.81-1.41 1.71-2.286 2.348-.506.377-.983.754-1.622.782-.48.03-.612-.087-.718-.58-.133-.607-.133-1.217-.08-1.825.213-2.262 1.01-4.322 2.074-6.264.48-.87.984-1.653 1.463-2.493.238-.435.186-.782-.133-1.072Zm1.222-1.42c.24.085.399-.088.373-.35 0-.435-.451-.87-.905-.927-.239-.028-.371.145-.291.407.133.435.451.725.823.87Z" fill="#0D588F"/><path d="M52.992 38.64c.053.609.133 1.218.399 1.768.903 1.857 2.712 2.263 4.227 1.567 3.058-1.422 8.8-6.901 12.097-7.336-.027-.115-.027-.173-.052-.203-.904-1.102-9.067 5.017-11.752 6.437-.692.378-1.384.695-2.181.695-.4-.027-.663-.202-.824-.607a3.53 3.53 0 0 1-.238-1.305 7.793 7.793 0 0 1 .532-3.015c.291-.813.743-1.537 1.142-2.292.293-.608.24-.81-.32-1.1-.16-.088-.318-.205-.478-.146-.292.116-.452-.059-.665-.204-.798-.492-1.595-.608-2.391-.057-1.916 1.304-2.792 3.276-2.74 5.682 0 .812.85 1.277 1.543.93.266-.146.505-.35.69-.58.294-.29.585-.61.904-.958.107.29.08.522.107.725Zm-1.49-.347c-.186.173-.399.318-.69.55 0-.637.106-1.102.266-1.507.479-1.335 1.17-2.465 2.18-3.392.186-.175.424-.29.637-.435.133-.088.32-.115.427.087.105.173.213.318.08.55-.852 1.48-1.676 2.987-2.9 4.147Zm-1.454-7.209c-1.488.84-2.87 1.826-4.12 3.043-1.65 1.595-3.085 3.422-4.573 5.192-.772.927-1.596 1.825-2.606 2.435-.56.377-.85.202-.931-.465a2.424 2.424 0 0 1 0-.608c.053-.407.133-.812.239-1.19.479-1.71 1.17-3.334 1.941-4.929.718-1.535 1.463-3.072 2.18-4.61.319-.665.56-1.42.692-2.145.186-.897-.186-1.362-1.038-1.362-.477.03-.876.26-1.275.522-1.25.898-2.34 2.058-3.43 3.16-.824.84-1.622 1.74-2.578 2.465.025-.87.211-1.71.477-2.495a89.021 89.021 0 0 1 3.377-8.667c.772-1.827 1.648-3.567 2.526-5.307 1.728-3.42 3.59-6.784 5.557-10.032.479-.782.903-1.622 1.302-2.464.187-.406.107-.55-.292-.696-.479-.174-.825-.057-1.143.435-.638 1.015-1.277 2-1.887 2.987-2.208 3.653-4.255 7.393-6.089 11.25-1.543 3.304-3.005 6.64-4.255 10.089-.559 1.508-1.01 3.045-1.063 4.667-.053.958.399 1.393 1.25 1.305.318-.03.584-.174.85-.377.266-.26.532-.493.772-.753 1.25-1.277 2.446-2.61 3.748-3.8.56-.492 1.117-1.014 1.782-1.304.133.204.052.377-.028.552a20.92 20.92 0 0 1-.451 1.16c-.585 1.45-1.383 2.753-2.02 4.145-.798 1.652-1.569 3.277-1.995 5.074-.213.958-.426 1.913-.185 2.928.185.812.584 1.16 1.355 1.16.612.03 1.143-.232 1.595-.638.56-.435 1.064-.927 1.543-1.45 1.222-1.362 2.446-2.697 3.668-4.087 1.728-1.915 3.564-3.654 5.717-4.96.133-.085.319-.144.266-.375-.426-.087-.426-.087-.878.145Z" fill="#0D588F"/><path d="M4.92 37.719c2.498 3.044 5.61 4.727 9.36 4.842 4.226.087 7.736-1.74 10.554-5.19 2.446-3.044 4.147-6.582 5.61-10.264 1.196-3.015 2.074-6.175 3.11-9.277 1.25-3.8 2.632-7.51 4.546-10.931.213-.376.454-.58.852-.666 1.622-.377 3.217-.93 4.6-2.002.318-.23.559-.29.93-.173 4.706 1.45 9.518 2.29 14.438 2.32 2.365.028 4.706-.06 7.019-.697 1.275-.348 2.524-.84 3.482-1.913.106-.087.319-.145.213-.347-.08-.205-.293-.233-.479-.145-.371.115-.797.202-1.169.435-1.038.695-2.127 1.245-3.351 1.507-1.729.405-3.483.52-5.264.52-4.069.06-8.11-.492-12.071-1.477-.984-.232-1.94-.522-2.924-.812.079-.116.106-.173.159-.26C45.36 1.94 44.88.81 43.47.608c-1.169-.175-2.18.317-3.058 1.072-.398.348-.717.405-1.142.203-.08-.03-.16-.03-.213-.058-2.925-.928-5.85-1.652-8.88-1.797-3.749-.175-7.391.462-10.954 1.652C11.194 4.376 5.318 9.828 1.57 17.975.08 21.222-.399 24.642.346 28.209c.718 3.625 2.34 6.755 4.574 9.51Zm38.1-36.415c.371-.145.584.057.664.405.106.492-.08.9-.346 1.277-.08.085-.158.115-.266.057-.584-.174-1.169-.377-1.806-.58.557-.552 1.116-.927 1.754-1.16ZM40.626 3.13c.08-.088.16-.205.346-.145.585.173 1.197.375 1.887.58-1.169 1.043-2.471 1.448-3.828 1.855a19.025 19.025 0 0 1 1.595-2.29ZM2.846 17.713C6.993 9.13 13.4 3.796 22.068 1.62c2.339-.578 4.732-.955 7.125-.985 2.393-.028 4.732.465 7.047 1.015 1.062.26 2.1.55 3.189.9-.452.58-.876 1.1-1.275 1.623-.16.202-.373.435-.48.695-.425.93-1.143 1.19-2.046 1.277-2.288.232-4.574.492-6.861.782-3.535.463-6.912 1.45-9.89 3.683-3.35 2.492-5.637 5.827-6.62 10.147-.372 1.594-.186 3.19.213 4.754.08.233.185.435.266.668.08.202.265.32.451.202.16-.087 0-.232-.027-.377-.399-2.29-.291-4.55.506-6.725 2.1-5.655 5.956-9.192 11.3-10.874 2.419-.753 4.892-1.015 7.39-1.245 1.224-.117 2.447-.262 3.67-.407.133 0 .266 0 .452-.028-.266.522-.504.985-.745 1.45-1.462 2.695-2.418 5.652-3.43 8.582-1.116 3.247-1.966 6.639-3.19 9.857-1.383 3.624-2.978 7.104-5.264 10.147-2.313 3.161-5.318 4.987-9.013 5.249-2.66.173-5.078-.697-7.125-2.552-3.909-3.567-6.25-8.09-6.595-13.714-.159-2.87.506-5.538 1.728-8.032Z" fill="#0D588F"/></svg>